<svg xmlns="http://www.w3.org/2000/svg" version="1.1" xmlns:xlink="http://www.w3.org/1999/xlink" width="32" height="32"><svg width="32" height="32" viewBox="0 0 32 32" fill="none" xmlns="http://www.w3.org/2000/svg">
<circle cx="16" cy="16" r="16" fill="#138EFF"></circle>
<path d="M8 15.5C8 14.6667 8.29166 13.9583 8.875 13.375C9.45833 12.7917 10.1667 12.5 11 12.5L11 14.5C10.7167 14.5 10.479 14.596 10.287 14.788C10.095 14.98 9.99933 15.2173 10 15.5C10.0007 15.7827 10.0967 16.0203 10.288 16.213C10.4793 16.4057 10.7167 16.5013 11 16.5C11.2833 16.4987 11.5207 16.4027 11.712 16.212C11.9033 16.0213 11.9993 15.784 12 15.5L12 6L14 6L14 15.5C14 16.3333 13.7083 17.0417 13.125 17.625C12.5417 18.2083 11.8333 18.5 11 18.5C10.1667 18.5 9.45833 18.2083 8.875 17.625C8.29166 17.0417 8 16.3333 8 15.5ZM18 6L20 6L20 19.5C20 19.9333 20.1417 20.2917 20.425 20.575C20.7083 20.8583 21.0667 21 21.5 21C21.9333 21 22.2917 20.8583 22.575 20.575C22.8583 20.2917 23 19.9333 23 19.5C23 19.0667 22.8583 18.7083 22.575 18.425C22.2917 18.1417 21.9333 18 21.5 18L21.5 16C22.4833 16 23.3127 16.3377 23.988 17.013C24.6633 17.6883 25.0007 18.5173 25 19.5C24.9993 20.4827 24.6617 21.312 23.987 21.988C23.3123 22.664 22.4833 23.0013 21.5 23C20.5167 22.9987 19.6873 22.6613 19.012 21.988C18.3367 21.3147 17.9993 20.4853 18 19.5L18 6ZM10 22.5L12 22.5C12 22.9333 12.1417 23.2917 12.425 23.575C12.7083 23.8583 13.0667 24 13.5 24C13.9333 24 14.2917 23.8583 14.575 23.575C14.8583 23.2917 15 22.9333 15 22.5L15 6L17 6L17 22.5C17 23.4833 16.6623 24.3127 15.987 24.988C15.3117 25.6633 14.4827 26.0007 13.5 26C12.5173 25.9993 11.688 25.662 11.012 24.988C10.336 24.314 9.99866 23.4847 10 22.5Z" fill="white"></path>
</svg><style>@media (prefers-color-scheme: light) { :root { filter: none; } }
@media (prefers-color-scheme: dark) { :root { filter: none; } }
</style></svg>